<svg width="48" height="51" viewBox="0 0 48 51" fill="none" xmlns="http://www.w3.org/2000/svg">
<path d="M8.16093 19.3998C8.54093 19.3998 8.92093 19.5399 9.22093 19.8399L22.2609 32.8798C23.2209 33.8398 24.7809 33.8398 25.7409 32.8798L38.7809 19.8398C39.3609 19.2598 40.3209 19.2598 40.9009 19.8398C41.4809 20.4198 41.4809 21.3798 40.9009 21.9598L27.8609 34.9998C25.7409 37.1198 22.2809 37.1198 20.1409 34.9998L7.10092 21.9598C6.52092 21.3798 6.52092 20.4199 7.10092 19.8399C7.40092 19.5598 7.78092 19.3998 8.16093 19.3998Z" fill="#83E801" fill-opacity="0.7"/>
<path d="M13.4409 10.9333C13.6943 10.9333 13.9476 11.0266 14.1476 11.2266L22.8409 19.92C23.4809 20.56 24.5209 20.56 25.1609 19.92L33.8543 11.2266C34.2409 10.84 34.8809 10.84 35.2676 11.2266C35.6543 11.6133 35.6543 12.2533 35.2676 12.64L26.5743 21.3333C25.1609 22.7466 22.8543 22.7466 21.4276 21.3333L12.7343 12.64C12.3476 12.2533 12.3476 11.6133 12.7343 11.2266C12.9343 11.04 13.1876 10.9333 13.4409 10.9333Z" fill="#83E801" fill-opacity="0.7"/>
</svg>
