<svg width="16" height="16" viewBox="0 0 16 16" fill="none" xmlns="http://www.w3.org/2000/svg">
<g id="vuesax/outline/arrow-right">
<g id="arrow-right">
<path id="Vector" d="M9.62333 12.5467C9.49667 12.5467 9.37 12.5001 9.27 12.4001C9.07667 12.2067 9.07667 11.8867 9.27 11.6934L12.9633 8.00008L9.27 4.30674C9.07667 4.11341 9.07667 3.79341 9.27 3.60008C9.46333 3.40674 9.78333 3.40674 9.97667 3.60008L14.0233 7.64674C14.2167 7.84008 14.2167 8.16008 14.0233 8.35341L9.97667 12.4001C9.87667 12.5001 9.75 12.5467 9.62333 12.5467Z" fill="#BEEF08"/>
<path id="Vector_2" d="M13.5559 8.5H2.33594C2.0626 8.5 1.83594 8.27333 1.83594 8C1.83594 7.72667 2.0626 7.5 2.33594 7.5H13.5559C13.8293 7.5 14.0559 7.72667 14.0559 8C14.0559 8.27333 13.8293 8.5 13.5559 8.5Z" fill="#BEEF08"/>
</g>
</g>
</svg>
