<svg width="559" height="285" viewBox="0 0 559 285" fill="none" xmlns="http://www.w3.org/2000/svg">
<path d="M374.823 266.351C435.766 254.592 486.908 232.838 519.316 204.891C551.725 176.943 563.339 144.577 552.131 113.446C540.923 82.315 507.606 54.3976 457.997 34.5698C408.389 14.7419 345.643 4.26402 280.719 4.96605C215.794 5.66809 152.818 17.5055 102.79 38.4107C52.7618 59.3159 18.8609 87.9602 7.00862 119.341C-4.84367 150.721 6.10595 182.843 37.945 210.096C69.7841 237.349 120.489 258.001 181.203 268.445L189.611 257.477C134.099 247.929 87.7391 229.046 58.6283 204.128C29.5175 179.211 19.5061 149.841 30.3428 121.15C41.1795 92.4584 72.1754 66.2686 117.917 47.1547C163.658 28.0409 221.238 17.2178 280.599 16.5759C339.96 15.9341 397.329 25.5141 442.687 43.6429C488.044 61.7717 518.507 87.297 528.754 115.76C539.002 144.224 528.383 173.816 498.752 199.369C469.12 224.922 422.361 244.812 366.639 255.563L374.823 266.351Z" fill="white" fill-opacity="0.1"/>
<circle cx="185.707" cy="262.706" r="16.4798" transform="rotate(70.3189 185.707 262.706)" fill="black" stroke="white"/>
<path d="M378.531 278.223C369.961 281.289 360.529 276.826 357.464 268.257C354.398 259.687 358.861 250.255 367.431 247.189C369.493 246.451 371.83 246.67 374.221 247.465C376.609 248.26 379.003 249.614 381.144 251.081C383.282 252.546 385.15 254.111 386.484 255.311C387.151 255.91 387.683 256.418 388.049 256.775C388.221 256.943 388.356 257.078 388.45 257.173C388.438 257.306 388.419 257.496 388.392 257.736C388.336 258.244 388.247 258.974 388.111 259.86C387.841 261.634 387.389 264.028 386.665 266.517C385.94 269.009 384.948 271.575 383.606 273.703C382.262 275.835 380.594 277.486 378.531 278.223Z" fill="black" stroke="white"/>
</svg>
