<svg width="100" height="100" viewBox="0 0 100 100" fill="none" xmlns="http://www.w3.org/2000/svg">
<circle cx="50" cy="50" r="44" stroke="url(#paint0_linear_1874_1631)" stroke-opacity="0.5" stroke-width="12"/>
<path d="M50.0026 67.9163C40.1193 67.9163 32.0859 59.883 32.0859 49.9997C32.0859 46.0663 33.3359 42.333 35.7026 39.1997C36.1193 38.6497 36.9026 38.5497 37.4526 38.9663C38.0026 39.383 38.1193 40.1663 37.7026 40.7163C35.6693 43.3997 34.5859 46.6163 34.5859 49.9997C34.5859 58.4997 41.5026 65.4163 50.0026 65.4163C58.5026 65.4163 65.4193 58.4997 65.4193 49.9997C65.4193 41.4997 58.5026 34.583 50.0026 34.583C49.3193 34.583 48.7526 34.0163 48.7526 33.333C48.7526 32.6497 49.3193 32.083 50.0026 32.083C59.8859 32.083 67.9193 40.1163 67.9193 49.9997C67.9193 59.883 59.8859 67.9163 50.0026 67.9163Z" fill="#F5F3F0"/>
<path d="M50.0026 62.9164C42.8859 62.9164 37.0859 57.1164 37.0859 49.9997C37.0859 49.3163 37.6526 48.7497 38.3359 48.7497C39.0193 48.7497 39.5859 49.3163 39.5859 49.9997C39.5859 55.7497 44.2526 60.4164 50.0026 60.4164C55.7526 60.4164 60.4193 55.7497 60.4193 49.9997C60.4193 44.2497 55.7526 39.583 50.0026 39.583C49.3193 39.583 48.7526 39.0163 48.7526 38.333C48.7526 37.6497 49.3193 37.083 50.0026 37.083C57.1193 37.083 62.9193 42.883 62.9193 49.9997C62.9193 57.1164 57.1193 62.9164 50.0026 62.9164Z" fill="#F5F3F0"/>
<path d="M50 57.9163C49.3167 57.9163 48.75 57.3497 48.75 56.6663C48.75 55.983 49.3167 55.4163 50 55.4163C52.9833 55.4163 55.4167 52.983 55.4167 49.9997C55.4167 47.0163 52.9833 44.583 50 44.583C49.3167 44.583 48.75 44.0163 48.75 43.333C48.75 42.6497 49.3167 42.083 50 42.083C54.3667 42.083 57.9167 45.633 57.9167 49.9997C57.9167 54.3663 54.3667 57.9163 50 57.9163Z" fill="#F5F3F0"/>
<defs>
<linearGradient id="paint0_linear_1874_1631" x1="50" y1="0" x2="50" y2="100" gradientUnits="userSpaceOnUse">
<stop stop-color="white" stop-opacity="0.64"/>
<stop offset="0.203125" stop-color="white" stop-opacity="0.586369"/>
<stop offset="0.796875" stop-color="white" stop-opacity="0"/>
<stop offset="1" stop-color="white" stop-opacity="0"/>
</linearGradient>
</defs>
</svg>
