<svg width="100" height="100" viewBox="0 0 100 100" fill="none" xmlns="http://www.w3.org/2000/svg">
<circle cx="50" cy="50" r="44" stroke="url(#paint0_linear_1874_1632)" stroke-opacity="0.5" stroke-width="12"/>
<path d="M50.9974 50.4163C50.2641 50.4163 49.5307 50.233 48.8641 49.883L38.0141 44.033C37.0307 43.4997 36.4141 42.4497 36.4141 41.283C36.4141 40.1163 37.0307 39.0663 38.0141 38.533L48.8641 32.683C50.1974 31.9663 51.7974 31.9663 53.1141 32.683L63.9641 38.533C64.9474 39.0663 65.5641 40.1163 65.5641 41.283C65.5641 42.4497 64.9474 43.4997 63.9641 44.033L53.1141 49.883C52.4641 50.2497 51.7307 50.4163 50.9974 50.4163ZM50.9974 34.633C50.6807 34.633 50.3474 34.7163 50.0474 34.883L39.2141 40.7163C38.9307 40.8663 38.9141 41.183 38.9141 41.283C38.9141 41.383 38.9307 41.6997 39.2141 41.833L50.0641 47.683C50.6641 47.9997 51.3474 47.9997 51.9474 47.683L62.7974 41.833C63.0641 41.683 63.0974 41.3663 63.0974 41.283C63.0974 41.183 63.0807 40.8663 62.7974 40.733L51.9474 34.883C51.6474 34.7163 51.3141 34.633 50.9974 34.633Z" fill="white"/>
<path d="M47.3026 67.8666C46.8359 67.8666 46.3526 67.7499 45.9193 67.5333L35.8193 62.4999C34.1359 61.6499 33.0859 59.9499 33.0859 58.0666V48.5333C33.0859 47.4499 33.6359 46.4666 34.5526 45.8999C35.4859 45.3333 36.6026 45.2833 37.5693 45.7666L47.6693 50.7999C49.3526 51.6499 50.4026 53.3333 50.4026 55.2333V64.7666C50.4026 65.8499 49.8526 66.8333 48.9359 67.3999C48.4359 67.7166 47.8693 67.8666 47.3026 67.8666ZM36.1859 47.9333C36.0526 47.9333 35.9359 47.9833 35.8693 48.0166C35.7693 48.0833 35.5859 48.2333 35.5859 48.5333V58.0666C35.5859 58.9999 36.1026 59.8499 36.9359 60.2666L47.0193 65.3166C47.2859 65.4499 47.5026 65.3499 47.6026 65.2999C47.7026 65.2333 47.8859 65.0833 47.8859 64.7833V55.2499C47.8859 54.3166 47.3693 53.4666 46.5359 53.0499L36.4526 47.9999C36.3526 47.9499 36.2693 47.9333 36.1859 47.9333Z" fill="white"/>
<path d="M54.7016 67.8667C54.1349 67.8667 53.5682 67.7167 53.0682 67.4C52.1516 66.8333 51.6016 65.85 51.6016 64.7667V55.2333C51.6016 53.35 52.6516 51.65 54.3349 50.8L64.4182 45.75C65.3849 45.2667 66.5182 45.3167 67.4349 45.8833C68.3516 46.45 68.9016 47.4333 68.9016 48.5167V58.05C68.9016 59.9333 67.8516 61.6333 66.1682 62.4833L56.0849 67.5333C55.6516 67.7667 55.1682 67.8667 54.7016 67.8667ZM65.8182 47.9333C65.7349 47.9333 65.6516 47.95 65.5516 48L55.4682 53.05C54.6349 53.4667 54.1182 54.3 54.1182 55.25V64.7833C54.1182 65.0833 54.3016 65.2333 54.4016 65.3C54.5016 65.3667 54.7182 65.45 54.9849 65.3167L65.0682 60.2667C65.9016 59.85 66.4182 59 66.4182 58.0667V48.5333C66.4182 48.2333 66.2349 48.0833 66.1349 48.0167C66.0682 47.9833 65.9516 47.9333 65.8182 47.9333Z" fill="white"/>
<defs>
<linearGradient id="paint0_linear_1874_1632" x1="50" y1="0" x2="50" y2="100" gradientUnits="userSpaceOnUse">
<stop stop-color="white" stop-opacity="0.64"/>
<stop offset="0.203125" stop-color="white" stop-opacity="0.586369"/>
<stop offset="0.796875" stop-color="white" stop-opacity="0"/>
<stop offset="1" stop-color="white" stop-opacity="0"/>
</linearGradient>
</defs>
</svg>
