<svg width="100" height="100" viewBox="0 0 100 100" fill="none" xmlns="http://www.w3.org/2000/svg">
<circle cx="50" cy="50" r="44" stroke="url(#paint0_linear_1874_1633)" stroke-opacity="0.5" stroke-width="12"/>
<path d="M49.9964 67.9167C49.8964 67.9167 49.7964 67.9 49.713 67.8833C49.613 67.8666 49.513 67.8167 49.413 67.7667L45.7297 65.9333C45.113 65.6167 44.863 64.8667 45.163 64.25C45.4797 63.6333 46.2297 63.3833 46.8464 63.6833L48.7464 64.6333V62.0333C48.7464 61.35 49.313 60.7833 49.9964 60.7833C50.6797 60.7833 51.2464 61.35 51.2464 62.0333V64.6333L53.1464 63.6833C53.763 63.3833 54.513 63.6333 54.8297 64.25C55.1464 64.8667 54.8963 65.6167 54.263 65.9333L50.5797 67.7667C50.4797 67.8167 50.3797 67.85 50.2797 67.8833C50.1797 67.9 50.0964 67.9167 49.9964 67.9167ZM61.113 62.3667C60.663 62.3667 60.213 62.1166 59.9964 61.6833C59.6797 61.0666 59.9297 60.3167 60.563 60L63.5797 58.5V54.65C63.5797 53.9666 64.1464 53.4 64.8297 53.4C65.513 53.4 66.0797 53.9666 66.0797 54.65V59.2833C66.0797 59.75 65.813 60.1833 65.3963 60.4L61.6963 62.25C61.4797 62.3167 61.2963 62.3667 61.113 62.3667ZM38.8797 62.3667C38.6964 62.3667 38.4964 62.3167 38.3297 62.2333L34.6297 60.3833C34.213 60.1666 33.9464 59.7333 33.9464 59.2667V54.6333C33.9464 53.95 34.513 53.3833 35.1964 53.3833C35.8797 53.3833 36.4464 53.95 36.4464 54.6333V58.4833L39.463 59.9833C40.0797 60.3 40.3297 61.05 40.0297 61.6667C39.7797 62.1 39.3464 62.3667 38.8797 62.3667ZM49.9964 54.0333C49.313 54.0333 48.7464 53.4667 48.7464 52.7833V48.9333L45.7297 47.4333C45.113 47.1167 44.863 46.3667 45.163 45.75C45.4797 45.1333 46.2297 44.8833 46.8464 45.1833L49.9964 46.75L53.1464 45.1833C53.763 44.8833 54.513 45.1167 54.8297 45.75C55.1464 46.3833 54.8963 47.1167 54.263 47.4333L51.2464 48.9333V52.7833C51.2464 53.4667 50.6797 54.0333 49.9964 54.0333ZM64.813 46.6167C64.1297 46.6167 63.563 46.05 63.563 45.3667V42.7667L61.663 43.7166C61.0464 44.0333 60.2963 43.7833 59.9797 43.15C59.663 42.5333 59.913 41.7833 60.5464 41.4667L62.013 40.7333L60.5464 40C59.9297 39.6833 59.6797 38.9333 59.9797 38.3167C60.2963 37.7 61.0464 37.45 61.663 37.75L65.3464 39.5833C65.3797 39.6 65.4297 39.6166 65.463 39.65C65.563 39.7 65.6464 39.7833 65.7297 39.8667C65.7797 39.9333 65.8297 40 65.8797 40.0666C65.9464 40.1833 65.9964 40.3 66.0297 40.4333C66.0464 40.5333 66.063 40.6333 66.063 40.7166V40.7333V45.3333C66.063 46.0667 65.4964 46.6167 64.813 46.6167ZM35.1797 46.6167C34.4964 46.6167 33.9297 46.05 33.9297 45.3667V40.7667V40.75C33.9297 40.65 33.9463 40.55 33.963 40.4667C33.9963 40.3333 34.0464 40.2167 34.113 40.1C34.163 40.0167 34.213 39.95 34.2797 39.8833C34.3464 39.8166 34.4297 39.75 34.513 39.7C34.5464 39.6833 34.5964 39.65 34.6297 39.6333L38.313 37.8C38.9297 37.5 39.6797 37.7333 39.9964 38.3667C40.313 39 40.063 39.7333 39.4297 40.05L37.963 40.7833L39.4297 41.5167C40.0464 41.8333 40.2964 42.5833 39.9964 43.2C39.6797 43.8167 38.9463 44.0666 38.313 43.7666L36.413 42.8167V45.4167C36.4297 46.0667 35.8797 46.6167 35.1797 46.6167ZM53.6964 36.4333C53.513 36.4333 53.313 36.3833 53.1464 36.3L49.9964 34.7333L46.8464 36.3C46.2297 36.6167 45.4797 36.3667 45.163 35.7333C44.8464 35.1167 45.0964 34.3666 45.7297 34.05L49.4297 32.2C49.7797 32.0167 50.1964 32.0167 50.5464 32.2L54.2464 34.05C54.863 34.3666 55.113 35.1167 54.813 35.7333C54.5964 36.1833 54.163 36.4333 53.6964 36.4333Z" fill="white"/>
<defs>
<linearGradient id="paint0_linear_1874_1633" x1="50" y1="0" x2="50" y2="100" gradientUnits="userSpaceOnUse">
<stop stop-color="white" stop-opacity="0.64"/>
<stop offset="0.203125" stop-color="white" stop-opacity="0.586369"/>
<stop offset="0.796875" stop-color="white" stop-opacity="0"/>
<stop offset="1" stop-color="white" stop-opacity="0"/>
</linearGradient>
</defs>
</svg>
