<svg width="95" height="32" viewBox="0 0 95 32" fill="none" xmlns="http://www.w3.org/2000/svg">
<path d="M33.0869 10.605C33.9471 10.605 34.7518 10.05 34.7518 9.05102C34.7518 8.05203 33.9471 7.52479 33.0869 7.52479C32.2821 7.52479 31.4496 8.05203 31.4496 9.05102C31.4496 10.05 32.2821 10.605 33.0869 10.605ZM31.6439 12.9915V27.1716H34.5576V12.9915H31.6439Z" fill="black"/>
<path d="M50.035 12.9915H46.927L43.2918 23.8416H43.2363L39.2681 12.9915H36.1324L41.2661 25.7286C41.7933 27.0606 41.4048 28.1705 40.8776 28.8088C40.2393 29.5858 39.3236 29.669 38.1026 29.5025H37.8529V31.7225C38.4079 31.8613 39.1016 32 39.9341 32C42.6536 32 43.5693 30.2518 44.374 28.0595L50.035 12.9915Z" fill="black"/>
<path d="M59.5629 16.7099C59.5629 18.0697 58.2309 18.3472 56.0387 18.7634C52.4867 19.4571 50.1835 20.4284 50.1835 23.5363C50.1835 25.9228 51.9595 27.5878 54.8454 27.5878C57.0376 27.5878 58.6471 26.7276 59.5351 25.4788H59.5906C59.8681 26.8663 60.5896 27.4213 62.1436 27.4213C62.6986 27.4213 63.1703 27.3658 63.8363 27.1161V25.7286C62.6986 25.8396 62.4766 25.3123 62.4766 24.3133V17.5702C62.4766 13.7962 60.1456 12.603 57.0099 12.603C52.7364 12.603 50.9882 14.7397 50.8495 17.4592H53.6799C53.8187 15.6277 54.6789 14.9062 57.0099 14.9062C58.9524 14.9062 59.5629 15.6832 59.5629 16.7099ZM55.4837 25.2846C53.9019 25.2846 53.1249 24.5631 53.1249 23.2589C53.1249 21.8159 54.1794 21.1221 56.5937 20.5949C57.9534 20.3174 59.0911 19.9844 59.5629 19.6514V21.7881C59.5629 24.0913 57.8979 25.2846 55.4837 25.2846Z" fill="black"/>
<path d="M75.5027 7.33054V14.712H75.4472C74.6979 13.6297 73.3104 12.603 71.1182 12.603C67.483 12.603 64.7913 15.4334 64.7913 20.0954C64.7913 24.7573 67.483 27.5878 71.1182 27.5878C73.3104 27.5878 74.6979 26.5056 75.4472 25.5343H75.5027V27.1716H78.4164V7.33054H75.5027ZM71.6177 25.2013C69.0647 25.2013 67.705 22.8704 67.705 20.0954C67.705 17.3204 69.0647 14.9894 71.6177 14.9894C74.0042 14.9894 75.4749 16.9319 75.4749 20.0954C75.4749 23.2311 74.0042 25.2013 71.6177 25.2013Z" fill="black"/>
<path d="M89.7786 16.7099C89.7786 18.0697 88.4466 18.3472 86.2544 18.7634C82.7024 19.4571 80.3992 20.4284 80.3992 23.5363C80.3992 25.9228 82.1752 27.5878 85.0611 27.5878C87.2533 27.5878 88.8628 26.7276 89.7508 25.4788H89.8063C90.0838 26.8663 90.8053 27.4213 92.3593 27.4213C92.9143 27.4213 93.386 27.3658 94.052 27.1161V25.7286C92.9143 25.8396 92.6923 25.3123 92.6923 24.3133V17.5702C92.6923 13.7962 90.3613 12.603 87.2256 12.603C82.9521 12.603 81.2039 14.7397 81.0652 17.4592H83.8956C84.0344 15.6277 84.8946 14.9062 87.2256 14.9062C89.1681 14.9062 89.7786 15.6832 89.7786 16.7099ZM85.6994 25.2846C84.1176 25.2846 83.3407 24.5631 83.3407 23.2589C83.3407 21.8159 84.3951 21.1221 86.8094 20.5949C88.1691 20.3174 89.3068 19.9844 89.7786 19.6514V21.7881C89.7786 24.0913 88.1136 25.2846 85.6994 25.2846Z" fill="black"/>
<path d="M6.07037 28.7386C3.56658 26.7798 1.69822 24.0107 0.733062 20.8282C-0.232096 17.6457 -0.2445 14.2131 0.697627 11.0225C1.63975 7.83182 3.48805 5.0469 5.9776 3.06685C8.46715 1.0868 11.4702 0.0132679 14.5562 0.000122185C17.6423 -0.0130235 20.6529 1.03489 23.1567 2.99367C25.6605 4.95245 27.5289 7.72154 28.494 10.9041C29.4592 14.0866 29.4716 17.5192 28.5295 20.7098C27.5873 23.9004 25.739 26.6854 23.2495 28.6654L21.3496 25.8496C23.2914 24.3051 24.7331 22.1329 25.468 19.6442C26.2028 17.1555 26.1931 14.4781 25.4403 11.9957C24.6875 9.51335 23.2302 7.35346 21.2772 5.82561C19.3243 4.29776 16.9759 3.48039 14.5688 3.49065C12.1617 3.5009 9.81936 4.33825 7.87751 5.88269C5.93566 7.42713 4.49399 9.59937 3.75913 12.0881C3.02427 14.5768 3.03394 17.2542 3.78677 19.7365C4.53959 22.2189 5.99691 24.3788 7.94987 25.9067L6.07037 28.7386Z" fill="black"/>
<path d="M23.4138 14.9026C23.4138 16.0024 19.4738 16.8939 14.6135 16.8939C9.7533 16.8939 5.8133 16.0024 5.8133 14.9026C5.8133 13.8028 9.7533 12.9113 14.6135 12.9113C19.4738 12.9113 23.4138 13.8028 23.4138 14.9026Z" fill="black"/>
</svg>
